<svg preserveAspectRatio="none" overflow="visible" style="display: block;" width="288" height="80" viewBox="0 0 288 80" fill="none" xmlns="http://www.w3.org/2000/svg">
<g id="Logo">
<path id="Slightly Redrawn" d="M266.968 0H288V79.9878H266.968V0ZM205.012 0H225.129V61.7036H251.652V80H205.016L205.012 0ZM141.911 0H162.032V61.7036H188.551V80H141.915L141.911 0ZM76.9833 0H124.884V17.2555H95.6198V31.6528H120.43V47.8796H95.6198V62.7323H127.398V79.9878H76.9874L76.9833 0ZM23.4318 62.163C28.8048 62.163 31.5665 61.3499 34.4136 59.6503C38.4159 57.2474 43.2153 50.5062 43.2153 40.1098C43.2153 28.9083 39.1032 22.6265 34.1858 19.6544C31.5583 18.0524 28.1296 17.8248 23.44 17.8248H19.3198V62.163H23.4318ZM0 0H24.1151C32.2498 0 37.944 0.341533 42.8614 2.84611C55.0919 9.12787 63.198 21.8134 63.198 40.0976C63.198 56.7676 55.0634 70.5916 43.3088 76.3204C36.9069 79.4064 32.2173 79.9797 24.1029 79.9797H0V0Z" fill="#FAF9FA"/>
</g>
</svg>
